<svg width="268" height="61" viewBox="0 0 268 61" fill="none" xmlns="http://www.w3.org/2000/svg">
<g clip-path="url(#clip0_20_1065)">
<rect x="0.531006" y="0.530975" width="49.9115" height="50.9734" rx="24.9558" fill="url(#paint0_linear_20_1065)"/>
<path d="M1.5972 26.4931C1.79197 25.1239 1.98875 23.7459 2.42112 22.4347C2.50276 22.1874 2.59478 21.9387 2.75063 21.7318C2.88393 21.5551 3.05854 21.416 3.23349 21.2824C3.81688 20.837 4.42762 20.4288 5.06079 20.0609C5.23256 19.9612 5.41306 19.8579 5.52089 19.6888C5.73029 19.3602 5.59332 18.9228 5.65891 18.5366C5.67425 18.4452 5.70339 18.3527 5.76603 18.2857C5.82384 18.2238 5.9043 18.1899 5.98346 18.1621C6.23958 18.072 6.5108 18.0271 6.79134 17.9955C6.81364 17.3396 6.83594 16.6835 6.85824 16.0277C6.85977 15.9798 6.86119 15.9304 6.84502 15.8852C6.8252 15.8298 6.7812 15.7875 6.7484 15.7388C6.68906 15.6507 6.66653 15.5379 6.66228 15.443C6.43082 15.1865 6.29786 14.8394 6.29739 14.4905C6.29715 14.2999 6.33467 14.1084 6.30824 13.9198C6.28807 13.7751 6.23085 13.6384 6.19758 13.4961C6.14614 13.2766 6.15311 13.0432 6.21729 12.8273C6.25327 12.7064 6.30683 12.5906 6.33042 12.4665C6.34718 12.3788 6.34883 12.2871 6.38127 12.2039C6.41348 12.1208 6.48898 12.0454 6.59657 12.0352C6.56613 11.9403 6.63066 11.8386 6.71088 11.7815C6.79099 11.7244 6.88737 11.6947 6.96795 11.6383C7.10928 11.5394 7.19009 11.3673 7.3339 11.272C7.4389 11.2024 7.56997 11.1792 7.66966 11.102C7.76522 11.0279 7.83034 10.9061 7.94536 10.8719C7.99196 10.858 8.0414 10.8607 8.08976 10.8601C8.30577 10.8578 8.5153 10.7919 8.72706 10.7483C8.9387 10.7045 9.16545 10.6842 9.36482 10.769C9.45366 10.8067 9.534 10.8644 9.62519 10.896C9.81359 10.9613 10.0407 10.914 10.2002 11.0357C10.2723 11.0909 10.3203 11.1747 10.3948 11.2265C10.5254 11.3173 10.7122 11.2936 10.8352 11.3947C10.9014 11.4491 10.9407 11.5337 11.0119 11.5812C11.0691 11.6194 11.144 11.6312 11.1893 11.6836C11.22 11.7191 11.2316 11.7673 11.2524 11.8097C11.3055 11.9185 11.415 11.9836 11.5065 12.0611C11.7068 12.2306 11.8363 12.4847 11.857 12.7495C11.8083 12.7364 11.7636 12.7081 11.7301 12.6695C11.8049 12.8876 11.8514 13.1159 11.8675 13.3464C11.796 13.2853 11.7101 13.242 11.5982 13.2264C11.7079 13.4869 11.6087 13.792 11.6714 14.0683C11.689 14.1452 11.7191 14.22 11.7216 14.2988C11.7274 14.4747 11.5988 14.6219 11.5397 14.7872C11.4272 15.1015 11.5718 15.464 11.4679 15.7815C11.3987 15.9932 11.2285 16.1543 11.1334 16.3553C10.9945 16.6487 11.0268 17.0008 10.9017 17.3005C10.8209 17.4939 10.6747 17.658 10.4488 17.774C10.6011 17.9077 10.6976 18.1055 10.7102 18.3101C10.7114 18.3269 10.712 18.3444 10.719 18.3596C10.7481 18.422 10.8378 18.3938 10.9051 18.3863C11.0693 18.3679 11.1911 18.5283 11.3023 18.653C11.3159 18.668 11.3309 18.6834 11.3503 18.6878C11.3684 18.6918 11.3869 18.6855 11.4041 18.6786C11.7487 18.5419 11.99 18.1933 12.3465 18.0937C12.4674 18.0598 12.5945 18.0573 12.7199 18.0549C13.0422 18.0489 13.3661 18.0698 13.7316 18.0343C14.3709 17.9722 15.007 18.1045 15.6326 18.2531C15.6938 18.2677 15.7569 18.282 15.8192 18.272C15.9034 18.2586 15.9742 18.2026 16.0456 18.1548C16.2173 18.0395 16.4135 17.9624 16.6165 17.9303C16.7887 17.9032 16.9643 17.9083 17.137 17.8848C17.3717 17.8528 17.5977 17.769 17.8332 17.7433C18.0686 17.7178 18.3307 17.7631 18.5059 17.9411C18.7088 17.4513 19.0777 17.0553 19.4499 16.6833C19.8222 16.3114 20.2114 15.944 20.4724 15.4836C20.4724 15.4836 20.6446 15.551 20.638 15.4981C20.8833 15.1025 21.1453 14.7094 21.356 14.2816C21.4649 14.0602 21.6642 13.649 21.6757 13.1949C21.4045 13.0677 21.1552 12.892 20.9423 12.6785C20.8316 12.5673 20.7285 12.4443 20.5943 12.3644C20.4869 12.3005 20.3633 12.2666 20.2617 12.1935C20.16 12.1203 20.0823 11.9859 20.1287 11.868C20.1744 11.7521 20.3242 11.6892 20.3325 11.5647C20.342 11.4202 20.1592 11.3462 20.1018 11.2138C20.0424 11.0767 20.1318 10.9236 20.2073 10.7713C20.1956 10.5767 20.1922 10.3578 20.3234 10.2161C20.5002 10.025 20.8024 10.0856 21.0594 10.1016C21.4969 10.129 21.9293 9.98199 22.3673 9.9903C22.5562 9.99391 22.7689 10.0426 22.8648 10.2087C22.9187 10.302 22.9248 10.415 22.931 10.5231C22.9678 11.1626 23.0552 11.7991 23.1922 12.4244C23.2461 12.6705 23.3081 12.9183 23.3021 13.1703C23.2976 13.3558 23.2566 13.5378 23.2156 13.7186C22.948 14.8995 22.6804 16.0804 22.4188 17.2792C22.7814 18.0674 23.1854 18.8356 23.6289 19.5794C23.6831 19.6701 23.7399 19.7724 23.7183 19.8762C23.703 19.9494 23.6511 20.0083 23.5985 20.0602C23.1551 20.4971 22.5368 20.6988 22.0564 21.0926C21.8054 21.2984 21.5837 21.5613 21.2785 21.6661C21.1467 21.7113 21.0038 21.7249 20.8805 21.7906C20.7033 21.8851 20.5936 22.0715 20.4415 22.204C20.1558 22.453 19.7464 22.4931 19.4306 22.7009C19.3181 22.775 19.2179 22.87 19.0956 22.9254C18.9993 22.9692 18.8933 22.9862 18.7886 22.9992C18.5189 23.0325 18.2469 23.0256 17.9505 23.0262C17.2391 23.0277 16.5246 23.0156 15.8278 22.8697C15.8061 22.8651 15.7813 22.8611 15.7636 22.8746C15.7547 22.8813 15.7491 22.8915 15.7442 22.9015C15.6389 23.1168 15.7556 23.4063 15.6177 23.6015C15.5015 23.7658 15.2603 23.7805 15.1199 23.9236C14.963 24.0835 14.981 24.3502 15.0302 24.5784C15.5169 24.6098 15.9198 24.9646 16.3793 25.1317C16.5124 25.1801 16.6667 25.2262 16.727 25.3566C16.7637 25.4361 16.755 25.5287 16.7456 25.6161C16.7178 25.8751 16.6898 26.1342 16.6618 26.3932C16.66 26.4119 16.6571 26.4321 16.6443 26.4455C16.63 26.4602 16.6076 26.462 16.5873 26.4626C16.4535 26.4663 16.319 26.451 16.175 26.4142C16.2091 26.536 16.2184 26.665 16.1802 26.8016C16.4299 26.8768 16.6651 27.0018 16.8688 27.1674C16.9587 27.0935 17.0486 27.0196 17.1383 26.9456C17.214 26.8835 17.2908 26.8204 17.3802 26.782C17.466 26.7451 17.5599 26.7321 17.646 26.696C17.6962 26.6748 17.7447 26.6455 17.7988 26.6398C17.8675 26.6325 17.9356 26.6654 17.9869 26.7126C18.0382 26.7598 18.0755 26.8206 18.1004 26.8895C18.2238 26.8651 18.3542 26.8412 18.4795 26.8831C18.6012 26.6927 18.7781 26.5334 18.9904 26.4656C19.0964 26.4319 19.2077 26.4214 19.317 26.401C19.7004 26.33 20.0532 26.1383 20.3732 25.9109C20.6931 25.6837 20.9861 25.4193 21.2979 25.1804C21.4257 25.0825 21.5628 24.9862 21.7206 24.9598C21.9091 24.9285 22.1131 24.9997 22.3529 24.895C22.8224 24.5522 23.3205 24.2504 23.84 23.9936C24.062 23.8839 24.2891 23.7816 24.4933 23.6404C24.6947 23.5011 24.8698 23.3267 25.051 23.161C25.4903 22.7593 25.9706 22.4064 26.4294 22.0305C26.6815 21.83 26.9335 21.6295 27.1857 21.429C27.9785 20.8295 28.7914 20.4097 29.6443 19.8938C30.2285 19.5403 30.7975 19.0144 31.4189 18.735C31.8464 18.5427 32.2737 18.3507 32.7037 18.1669C32.7651 18.1407 32.8358 18.166 32.868 18.2255C32.8832 18.2534 32.8995 18.2858 32.9161 18.3193C33.7087 17.9231 34.5664 17.6195 35.3225 17.1814C36.3387 16.5926 37.2254 15.7836 38.2972 15.2341C38.4256 15.0109 38.5776 14.8016 38.7495 14.6112C38.8394 14.5117 38.9354 14.4163 39.0068 14.3021C39.1568 14.0621 39.1844 13.7617 39.3155 13.5102C39.3359 13.471 39.3598 13.4322 39.3955 13.407C39.4478 13.3705 39.5188 13.37 39.5777 13.394C39.6364 13.4181 39.6847 13.4634 39.7249 13.5135C39.8446 13.6622 39.9037 13.8602 39.8856 14.0517C39.8757 14.1552 39.8446 14.2553 39.8298 14.3581C39.7977 14.5789 39.8403 14.8101 39.776 15.0235C39.742 15.1362 39.6799 15.2375 39.6332 15.3454C39.5431 15.5542 39.2136 16.6051 38.7397 17.2246C38.6168 17.3855 38.4757 17.5335 38.376 17.7103C38.2086 18.0069 38.1709 18.3583 38.106 18.6942C38.041 19.0301 37.9323 19.3815 37.6717 19.5968C37.4538 19.7767 37.1547 19.8335 36.8775 19.7919C36.6002 19.7505 36.3426 19.619 36.0698 19.4409C35.2608 19.753 34.5032 20.2015 33.8326 20.759C34.0037 21.4566 34.3049 22.5492 34.44 23.1374C34.4732 23.2813 34.5041 23.4417 34.4318 23.5698C34.362 23.6932 34.2185 23.7473 34.0869 23.795C33.1336 24.1406 32.2357 24.6262 31.3417 25.1099C31.1086 25.2361 30.8744 25.3629 30.662 25.5228C30.4634 25.6723 30.2847 25.8499 30.0751 25.9832C29.8809 26.1066 29.664 26.1892 29.4695 26.3122C29.2056 26.4792 28.9916 26.7149 28.7754 26.9424C28.2712 27.4729 27.7373 27.974 27.1568 28.4256C26.9956 28.7595 26.6955 28.9971 26.4055 29.2224C25.516 29.9134 24.6264 30.6042 23.7084 31.3223C24.5587 31.9494 25.6753 32.1631 26.415 32.9282C26.2477 33.3723 26.0401 33.8007 25.7944 34.204C25.0514 34.0249 24.4178 33.5478 23.7422 33.1849C23.4897 33.0493 23.2297 32.9291 22.9699 32.809C22.696 32.6822 22.4219 32.5555 22.1279 32.4C21.9153 32.5922 21.703 32.7845 21.4904 32.9767C21.3331 33.1191 21.1738 33.2628 20.9878 33.3628C20.8184 33.454 20.6236 33.5115 20.4941 33.6555C20.4004 33.7596 20.3523 33.8967 20.2983 34.0268C20.1486 34.3872 19.9359 34.7202 19.6734 35.0053C19.5673 35.1204 19.447 35.2401 19.4259 35.3967C19.4079 35.5309 19.4676 35.6621 19.5303 35.7815C19.831 36.3555 20.2355 36.88 20.4369 37.4931C19.4556 38.0282 18.428 38.4748 17.3142 38.8033C17.1355 39.8579 16.7719 40.8691 16.4102 41.8736C16.19 42.4851 15.9698 43.0966 15.7496 43.7081C15.5899 44.1513 15.4301 44.5953 15.2282 45.0202C15.0674 45.3587 14.8801 45.6848 14.7463 46.0354C14.5929 46.4375 14.5127 46.8646 14.3746 47.2723C14.0173 48.3251 13.2786 49.2714 13.1802 50.3321C13.117 51.0136 12.9758 51.684 12.7849 52.3402C12.4346 53.5445 12.3524 54.8163 11.9762 56.0111C11.9532 56.0841 11.9274 56.1595 11.8742 56.2135C11.794 56.2952 11.6675 56.3102 11.5561 56.2896C11.4446 56.269 11.3406 56.2186 11.2318 56.1867C10.8945 56.0872 10.5266 56.1669 10.1869 56.0768C10.1469 56.0662 10.1079 56.0526 10.0695 56.0378C9.96425 56.4117 9.75461 57.141 9.59735 57.5908C9.37898 58.2153 9.45177 58.4308 9.43714 59.0925C9.42263 59.7541 9.62637 60.334 8.98589 60.6165C8.34529 60.899 7.20248 60.6908 6.72209 60.676C6.2417 60.6612 5.9942 60.7133 5.9942 60.7133C5.9942 60.7133 5.50649 61.0627 5.14254 61.0998C4.77859 61.1369 4.53109 61.0998 4.53109 61.0998C4.53109 61.0998 4.06521 61.3525 3.6431 61.3303C3.22087 61.308 3.12626 61.2782 3.03164 61.07C2.93703 60.8618 3.13357 60.676 3.52666 60.5719C3.91975 60.4678 4.77871 59.8731 5.08438 59.6576C5.39005 59.442 5.95055 58.944 6.28547 58.7655C6.62028 58.5871 7.13713 57.8883 7.39915 56.9739C7.51004 56.5868 7.6358 55.967 7.74386 55.3809C7.61621 55.3353 7.47441 55.2205 7.5341 54.9283C7.6601 53.9004 7.60996 52.8446 7.87481 51.8446C7.95633 51.537 8.06758 51.2355 8.10746 50.9194C8.15382 50.5533 8.10286 50.1802 8.1458 49.8138C8.17671 49.549 8.25599 49.293 8.33491 49.0387C8.44203 48.6934 8.54927 48.3482 8.65828 47.9987C8.61498 47.7238 8.57169 47.4467 8.58502 47.1686C8.59858 46.8905 8.67338 46.6082 8.84397 46.391C8.98613 46.2099 9.18892 46.0806 9.30713 45.8823C9.50757 45.5468 9.41508 45.119 9.43584 44.7265C9.45047 44.4488 9.52515 44.1783 9.59924 43.9106C9.69397 43.5685 9.78858 43.2265 9.8832 42.8845C9.95068 42.6413 10.0184 42.395 10.0263 42.1424C10.0362 41.8269 9.95221 41.5134 9.96991 41.1984C9.98642 40.9026 10.0953 40.6128 10.3177 40.2998C10.3231 40.0885 10.3284 39.877 10.3337 39.6657C10.3353 39.5987 10.3372 39.5306 10.3557 39.4663C10.2967 39.4786 10.2365 39.4575 10.1799 39.4369C10.0015 39.3717 9.82303 39.3067 9.65386 39.1798C9.61858 39.3506 9.56715 39.518 9.50026 39.6787C9.49341 39.6617 9.47359 39.6553 9.45602 39.6508C9.33356 39.6194 9.21098 39.5879 9.08357 39.5074C9.13572 38.9836 9.33946 38.4868 9.41048 37.9654C9.45909 37.6095 9.44493 37.2483 9.44469 36.8891C9.44445 36.4166 9.46828 35.9447 9.492 35.4727C9.52444 34.8283 9.57528 34.1338 9.99032 33.6128C9.94454 33.419 9.98442 33.2058 10.1243 33.0511C9.90361 32.9699 9.79448 32.7134 9.76451 32.4757C9.75024 32.3616 9.74741 32.2423 9.69739 32.1392C9.66259 32.0674 9.60714 32.0085 9.55264 31.9509C9.42157 31.8122 9.2905 31.6735 9.15931 31.5347C9.1166 31.4897 9.06139 31.4405 9.00194 31.4557C8.96973 31.464 8.94519 31.4894 8.92148 31.5129C8.60826 31.8215 8.11867 31.9277 7.68417 31.7738C7.15305 32.8009 6.60459 33.8513 5.75731 34.6263C5.65432 34.7206 5.53563 34.8149 5.39737 34.8172C5.29898 34.8189 5.20731 34.7731 5.12461 34.7165C4.9998 34.6308 4.88619 34.5291 4.77848 34.4218C4.11264 33.758 3.44655 33.094 2.78071 32.4303C2.59714 32.2474 2.41051 32.0602 2.29372 31.8271C2.2083 31.6568 2.16359 31.4682 2.09021 31.292C1.9851 31.0394 1.82288 30.8156 1.70998 30.5666C1.53503 30.1812 1.4843 29.7383 1.45834 29.3063C1.33164 28.3725 1.46448 27.4254 1.5972 26.4931ZM5.15269 28.5419C5.18395 28.5889 5.22525 28.6289 5.25037 28.6796C5.29603 28.7716 5.27644 28.8928 5.20436 28.9649C5.24636 29.0066 5.24412 29.0855 5.23209 29.1543C5.34086 29.1235 5.46402 29.1522 5.54896 29.2282C5.61963 29.2914 5.66658 29.3857 5.75259 29.4243C5.80414 29.4476 5.86301 29.4472 5.91645 29.4654C5.99974 29.4936 6.06569 29.5695 6.08338 29.6572C6.31084 29.546 6.55894 29.4792 6.81895 29.4364C6.5784 29.3005 6.3611 29.1188 6.19452 28.8955C6.02782 28.6723 5.91291 28.4069 5.87764 28.1284C5.85888 27.982 5.85982 27.8254 5.78337 27.7001C5.69265 27.5514 5.51664 27.485 5.31089 27.4297C5.38097 27.6013 5.3608 27.8083 5.25898 27.9624C5.21958 28.0219 5.16909 28.0737 5.13499 28.1366C5.06739 28.2611 5.07447 28.4241 5.15269 28.5419Z" fill="white"/>
</g>
<path d="M25.7522 0C22.3704 -4.03279e-08 19.0217 0.666101 15.8973 1.96027C12.7729 3.25444 9.93396 5.15133 7.54265 7.54265C5.15133 9.93396 3.25444 12.7729 1.96027 15.8973C0.6661 19.0217 -1.07497e-07 22.3704 0 25.7522C1.07497e-07 29.134 0.666101 32.4828 1.96027 35.6072C3.25444 38.7316 5.15134 41.5705 7.54265 43.9618C9.93396 46.3531 12.7729 48.25 15.8973 49.5442L8.60729 42.8971C6.35578 40.6456 4.56979 37.9727 3.35129 35.031C2.13278 32.0893 1.50563 28.9363 1.50563 25.7522C1.50563 22.5681 2.13278 19.4152 3.35129 16.4734C4.56979 13.5317 6.35578 10.8588 8.60729 8.60729C10.8588 6.35578 13.5317 4.56979 16.4734 3.35129C19.4152 2.13278 22.5681 1.50563 25.7522 1.50563V0Z" fill="#003D8E"/>
<path d="M25.7522 0C29.1341 -4.03279e-08 32.4828 0.666101 35.6072 1.96027C38.7316 3.25444 41.5705 5.15133 43.9618 7.54265C46.3531 9.93396 48.25 12.7729 49.5442 15.8973C50.8384 19.0217 51.5045 22.3704 51.5045 25.7522C51.5045 29.134 50.8384 32.4828 49.5442 35.6072C48.25 38.7316 46.3531 41.5705 43.9618 43.9618C41.5705 46.3531 38.7316 48.25 35.6072 49.5442L43.9618 42.2813C46.0684 39.9134 46.9206 38.0047 48.119 35.1111L48.1524 35.0306C49.3708 32.089 49.998 28.9362 49.998 25.7522C49.998 22.5682 49.3708 19.4154 48.1524 16.4738C46.9339 13.5322 45.148 10.8593 42.8965 8.60791C40.6451 6.35649 37.9723 4.57056 35.0307 3.3521C32.0891 2.13364 28.9362 1.5065 25.7522 1.5065V0Z" fill="#FFDD00"/>
<path d="M42.5171 23.3895C42.5047 23.2792 42.4426 23.2219 42.3309 23.2178C42.3226 23.2178 42.2957 23.2178 42.2502 23.2178C42.0875 23.2164 42.0033 23.2971 41.9978 23.4598C41.9833 23.855 41.9461 24.4446 41.7578 24.755C41.6502 24.9343 41.5723 24.915 41.524 24.6971C41.3792 24.0474 41.0578 23.8233 40.5599 24.0247C39.9668 24.2647 39.5406 24.4309 39.2813 24.5233C39.2348 24.5398 39.1852 24.5453 39.1362 24.5394C39.0873 24.5335 39.0405 24.5163 38.9995 24.4891C38.9585 24.462 38.9244 24.4257 38.9001 24.3831C38.8757 24.3406 38.8618 24.2929 38.8593 24.244C38.8241 23.5819 38.942 23.1495 38.5965 22.7626C38.5823 22.747 38.5724 22.728 38.5676 22.7074C38.5628 22.6869 38.5633 22.6654 38.5691 22.6451C38.5749 22.6248 38.5858 22.6064 38.6007 22.5914C38.6156 22.5765 38.6341 22.5656 38.6544 22.5599L39.8627 22.1957C39.9888 22.1581 40.1207 22.1592 40.2334 22.1989C40.3462 22.2385 40.4322 22.3139 40.4751 22.4109C40.4916 22.4468 40.4744 22.5516 40.4234 22.7254C40.4027 22.793 40.3585 22.833 40.291 22.8454C39.8689 22.9261 39.3123 22.9198 39.4882 23.5302C39.5103 23.606 39.5599 23.6412 39.6372 23.6357C40.6944 23.5654 41.284 23.0916 41.344 22.0406C41.373 21.5302 41.1875 21.0585 40.7875 20.6254C40.6965 20.5261 40.7165 20.4633 40.8475 20.4371C42.2337 20.1578 42.0247 21.4633 41.9958 22.2723C41.9902 22.4171 42.0599 22.4895 42.2047 22.4895H42.3599C42.4133 22.4896 42.4648 22.4689 42.5033 22.4319C42.5419 22.3948 42.5646 22.3443 42.5668 22.2909C42.604 21.3909 42.6971 20.4744 41.9358 19.8827C41.7192 19.7158 41.7482 19.6371 42.0226 19.6468C42.6433 19.6696 43.4109 19.8558 43.3819 20.6626C43.3654 21.082 43.3543 22.4557 43.3488 24.784C43.3488 25.1833 43.2247 25.5101 42.9806 25.7874C42.9656 25.8038 42.9463 25.8156 42.9248 25.8213C42.9034 25.827 42.8808 25.8265 42.8596 25.8197C42.8385 25.813 42.8197 25.8003 42.8056 25.7832C42.7915 25.7661 42.7825 25.7453 42.7799 25.7232L42.5171 23.3895Z" fill="white"/>
<path d="M42.6495 30.9555C42.6459 30.8939 42.6233 30.835 42.5847 30.7868C42.5462 30.7386 42.4936 30.7036 42.4343 30.6866L41.3337 30.3638C41.0509 30.2811 41.0461 30.1824 41.3192 30.068C42.1364 29.7266 42.7012 29.1949 42.5274 28.268C42.4426 27.8087 42.0868 27.3308 41.8095 26.9232C41.8033 26.9138 41.8 26.9028 41.8 26.8915C41.8 26.8802 41.8032 26.8692 41.8094 26.8598C41.8155 26.8503 41.8243 26.8429 41.8346 26.8383C41.8449 26.8338 41.8563 26.8324 41.8675 26.8342C42.5523 26.9542 43.326 26.8508 43.3219 27.8521C43.3164 29.0949 43.3081 29.7687 43.2971 29.8735C43.2281 30.53 43.0661 31.1038 42.8109 31.5948C42.735 31.741 42.6923 31.7321 42.6826 31.5679L42.6495 30.9555Z" fill="white"/>
<path d="M39.5813 30.0246L38.8737 30.1052C38.7834 30.1156 38.6921 30.1055 38.6065 30.0758C38.5208 30.0461 38.4432 29.9974 38.3792 29.9335C38.3337 29.8894 38.3103 29.8659 38.3089 29.8632C38.1792 29.6715 38.2096 29.5577 38.3999 29.5218C39.0703 29.3977 39.4303 29.3322 39.4799 29.3253C40.0778 29.2342 40.2723 29.0997 40.3902 28.5142C40.4 28.465 40.3947 28.414 40.3752 28.3679C40.3556 28.3217 40.3226 28.2824 40.2804 28.2552C40.2383 28.228 40.189 28.2141 40.1388 28.2153C40.0887 28.2165 40.04 28.2327 39.9992 28.2618C39.6337 28.5239 39.3054 28.5494 39.0144 28.3384C38.983 28.3159 38.9571 28.2865 38.939 28.2524C38.9208 28.2182 38.9107 28.1803 38.9095 28.1416C38.9083 28.1028 38.916 28.0642 38.932 28.0287C38.9481 27.9932 38.972 27.9619 39.002 27.937C39.4178 27.5936 40.2454 27.1301 40.7689 27.4818C41.1482 27.7356 41.3178 28.097 41.2778 28.566C41.2748 28.5997 41.2626 28.632 41.2425 28.6594C41.2225 28.6867 41.1953 28.7081 41.164 28.7211L40.8371 28.8618C40.8102 28.8738 40.7872 28.8912 40.7716 28.9116C40.756 28.9321 40.7485 28.9545 40.7502 28.9756C40.7516 28.9908 40.7599 29.0094 40.7751 29.0315C40.7916 29.0522 40.813 29.0618 40.8392 29.0604C41.0764 29.0453 41.2564 29.0542 41.3792 29.0873C41.4895 29.1177 41.5509 29.1901 41.5633 29.3046C41.5668 29.336 41.5593 29.3676 41.5423 29.3937C41.5252 29.4198 41.4997 29.4388 41.4702 29.4473C41.1206 29.5508 40.8516 29.6397 40.6778 29.9604C40.4668 30.3494 40.3096 31.0301 39.7013 31.2059C39.6862 31.2101 39.6703 31.2105 39.655 31.2071C39.6397 31.2037 39.6255 31.1966 39.6136 31.1863C39.6017 31.1761 39.5926 31.1631 39.5869 31.1485C39.5813 31.1338 39.5794 31.118 39.5813 31.1025L39.693 30.1383C39.704 30.0528 39.6668 30.0149 39.5813 30.0246Z" fill="white"/>
<path d="M41.2985 32.468C41.3217 32.5503 41.3765 32.62 41.451 32.6618C41.5254 32.7037 41.6135 32.7144 41.6958 32.6915L42.7054 32.4101C42.7368 32.402 42.7698 32.4023 42.801 32.411C42.8323 32.4197 42.8607 32.4365 42.8833 32.4597C42.9882 32.5701 43.0088 32.759 42.9454 33.0266C42.9378 33.0591 42.9224 33.0892 42.9004 33.1145C42.8784 33.1397 42.8505 33.1593 42.8192 33.1715C41.8923 33.5273 41.4061 33.5997 40.7937 32.7287C40.3303 32.068 40.0717 31.6873 40.0179 31.5867C39.9806 31.5149 40.002 31.4701 40.082 31.4522C40.3192 31.3984 40.5668 31.3991 40.8247 31.4542C40.8863 31.4673 40.9431 31.497 40.9887 31.5401C41.0343 31.5831 41.0671 31.6379 41.0834 31.6984L41.2985 32.468Z" fill="white"/>
<path d="M41.1909 36.7796C41.7702 36.6927 42.3226 36.3865 43.0219 36.4879C43.0549 36.4922 43.0861 36.5057 43.1121 36.5269C43.138 36.5481 43.1576 36.5761 43.1688 36.6079C43.2488 36.8368 43.2474 37.0175 43.1646 37.1499C43.1506 37.1731 43.1312 37.1927 43.1083 37.207C43.0853 37.2214 43.0592 37.2302 43.0322 37.2327L40.7005 37.4975C40.658 37.5024 40.6149 37.4986 40.5737 37.4865C40.5326 37.4744 40.4942 37.4542 40.4609 37.4271C40.4276 37.3999 40.4 37.3664 40.3797 37.3284C40.3594 37.2904 40.3468 37.2487 40.3426 37.2058L40.2288 35.9603C40.2275 35.9443 40.2202 35.9289 40.2081 35.9169L39.6309 35.3727C39.5962 35.3395 39.5723 35.2964 39.5625 35.2493C39.5527 35.2022 39.5575 35.1533 39.5761 35.1089C39.5947 35.0646 39.6263 35.0269 39.6667 35.0008C39.7072 34.9748 39.7545 34.9616 39.8026 34.9631C40.793 35.0003 41.7371 34.8638 42.635 34.5534C42.904 34.4596 43.0853 34.5472 43.1791 34.8162C43.1833 34.8286 43.1929 34.8583 43.2081 34.9052C43.2977 35.1879 43.1957 35.3458 42.9019 35.3789L41.3274 35.5569C41.0295 35.5913 40.8674 35.7576 40.8412 36.0555L40.8081 36.4196C40.7833 36.7024 40.9109 36.8224 41.1909 36.7796Z" fill="white"/>
<path d="M42.4488 38.5547C42.449 38.5924 42.4581 38.6294 42.4752 38.6629C42.4923 38.6964 42.5171 38.7253 42.5475 38.7475C42.5779 38.7696 42.6131 38.7843 42.6502 38.7904C42.6874 38.7964 42.7254 38.7937 42.7612 38.7823C43.1861 38.6458 43.6081 38.6223 44.0274 38.712C44.1107 38.7293 44.1852 38.7755 44.2381 38.8424C44.291 38.9093 44.319 38.9927 44.3171 39.0782C44.3171 39.1016 44.3171 39.1196 44.3171 39.132C44.3198 39.3927 44.1916 39.5078 43.9323 39.4775C42.6206 39.3244 41.2758 39.3858 39.8978 39.6616C39.2248 39.7968 38.6855 39.6078 38.2799 39.0947C38.2661 39.0768 38.2575 39.0553 38.2552 39.0328C38.2529 39.0102 38.2569 38.9874 38.2668 38.967C38.2767 38.9466 38.292 38.9294 38.3112 38.9172C38.3303 38.9051 38.3524 38.8985 38.3751 38.8982H41.5261C41.5654 38.8984 41.6041 38.8882 41.6382 38.8686C41.6723 38.8491 41.7006 38.8209 41.7203 38.7869C41.7401 38.7529 41.7505 38.7143 41.7505 38.675C41.7506 38.6357 41.7402 38.5971 41.7206 38.563L41.3006 37.8389C41.2913 37.8226 41.2858 37.8045 41.2843 37.7859C41.2827 37.7672 41.2853 37.7485 41.2918 37.7309C41.2983 37.7134 41.3086 37.6975 41.3219 37.6843C41.3352 37.6712 41.3512 37.6611 41.3689 37.6548C41.6502 37.5513 41.9502 37.5844 42.2688 37.7541C42.3231 37.7827 42.3685 37.8255 42.4002 37.878C42.432 37.9305 42.4488 37.9907 42.4488 38.052V38.5547Z" fill="white"/>
<path d="M5.00243 38.3083C6.32985 40.9632 10.8852 45.5566 14.0521 47.5428C16.2203 48.9014 18.4444 49.9427 20.7244 50.6669C21.4747 50.9055 22.1243 51.0531 22.6733 51.1096C23.0843 51.151 23.0871 51.211 22.6816 51.2896L22.6464 51.2964C21.6233 51.4931 20.499 51.7093 19.9713 52.5827C19.934 52.6426 19.8764 52.6861 19.8099 52.7048L17.8754 53.2427C17.7113 53.2884 17.5368 53.2812 17.3768 53.222C8.4956 51.2896 8.10034 44.462 4.28937 39.9993L5.00243 38.3083Z" fill="url(#paint1_linear_20_1065)"/>
<path d="M46.5611 38.5565C45.2337 41.2113 40.467 45.5308 37.3002 47.517C35.1319 48.8756 33.2118 49.9427 30.9319 50.6669C30.1815 50.9055 29.5319 51.0531 28.9829 51.1096C28.5719 51.151 28.5691 51.211 28.9746 51.2896L29.0098 51.2964C30.0329 51.4931 31.0652 51.9585 31.5929 52.8319C31.6302 52.8917 31.7919 53.224 31.8584 53.2427L32.3894 53.0974C32.5535 53.1431 34.1194 53.2812 34.2794 53.222C43.1606 51.2896 44.3363 44.6018 47.2567 39.823L46.5611 38.5565Z" fill="url(#paint2_linear_20_1065)"/>
<path d="M26.5649 51.8254C26.5629 51.8377 26.5561 51.8487 26.5461 51.856C26.536 51.8634 26.5235 51.8665 26.5111 51.8647L26.478 51.8606C26.3534 51.8437 26.2308 51.8205 26.1174 51.7922C26.0039 51.7639 25.9018 51.7312 25.8169 51.6958C25.732 51.6605 25.6659 51.6232 25.6225 51.5862C25.579 51.5491 25.559 51.513 25.5636 51.4799V51.4757C25.5741 51.4093 25.6837 51.3591 25.8682 51.3362C26.0528 51.3133 26.2974 51.3196 26.5484 51.3537L26.5815 51.3578C26.5938 51.3599 26.6048 51.3666 26.6121 51.3767C26.6195 51.3867 26.6226 51.3993 26.6208 51.4116L26.5649 51.8254Z" fill="black"/>
<path d="M31.4413 53.2136C31.4413 54.3212 31.44 55.3605 31.4372 56.3315C31.4372 56.4005 31.4076 56.4536 31.3482 56.4908C30.0572 57.277 28.7448 57.768 27.4111 57.9639C27.3982 57.966 27.3851 57.9653 27.3726 57.9618C27.36 57.9582 27.3484 57.952 27.3386 57.9436C27.3287 57.9351 27.3208 57.9245 27.3155 57.9127C27.3101 57.9008 27.3075 57.8879 27.3076 57.8749V51.4074C27.3077 51.388 27.3122 51.3688 27.3207 51.3513C27.3292 51.3338 27.3415 51.3186 27.3566 51.3066C27.3718 51.2946 27.3894 51.2863 27.4082 51.2823C27.4269 51.2782 27.4463 51.2786 27.4649 51.2833C28.7697 51.5992 29.9724 52.1136 31.0731 52.8267C31.0841 52.8336 31.1503 52.8647 31.2717 52.9198C31.3848 52.9695 31.4413 53.0674 31.4413 53.2136Z" fill="black"/>
<path d="M26.596 52.6033V54.4074C26.596 54.4359 26.5892 54.464 26.576 54.4894C26.5629 54.5147 26.5439 54.5365 26.5205 54.5529C26.4972 54.5694 26.4703 54.5799 26.442 54.5838C26.4137 54.5876 26.3849 54.5846 26.3581 54.575L20.7637 52.5743C20.728 52.5617 20.6972 52.5379 20.676 52.5066C20.6547 52.4753 20.6439 52.438 20.6453 52.4001C20.6467 52.3623 20.6601 52.3258 20.6837 52.2961C20.7072 52.2664 20.7396 52.245 20.7761 52.235L23.6147 51.4447C23.6501 51.4349 23.6877 51.4364 23.7223 51.4488L26.4781 52.4357C26.5126 52.4481 26.5425 52.4708 26.5636 52.5008C26.5847 52.5308 26.596 52.5666 26.596 52.6033Z" fill="black"/>
<path d="M6.97426 58.0571L20.3561 53.133C20.5242 53.0716 20.7087 53.0731 20.8754 53.1372L25.1105 54.7758C25.2622 54.8337 25.2615 54.8889 25.1084 54.9413C22.3016 55.9081 17.1568 57.7005 9.67421 60.3184C8.96664 60.5646 8.26734 60.1508 7.69011 59.8115C7.23494 59.5453 6.90805 59.1543 6.70943 58.6384C6.68827 58.5829 6.67834 58.5237 6.68022 58.4643C6.6821 58.4049 6.69575 58.3465 6.72038 58.2924C6.74502 58.2384 6.78014 58.1897 6.82372 58.1493C6.8673 58.1089 6.91847 58.0776 6.97426 58.0571Z" fill="black"/>
<path d="M44.4778 57.9597C43.9895 58.7625 43.3544 59.65 42.5226 59.8942C42.3392 59.948 42.0785 59.9121 41.7406 59.7866C37.6758 58.2735 34.5531 57.1252 32.3725 56.3418C32.3226 56.3236 32.2796 56.2905 32.2493 56.2472C32.2189 56.2039 32.2027 56.1524 32.2028 56.0997V53.5301C32.203 53.5106 32.2078 53.4915 32.2169 53.4742C32.226 53.457 32.2391 53.4422 32.2551 53.431C32.2711 53.4199 32.2896 53.4127 32.3089 53.4102C32.3283 53.4076 32.3479 53.4097 32.3663 53.4163L44.3909 57.7177C44.4142 57.7258 44.4353 57.739 44.4528 57.7564C44.4703 57.7737 44.4837 57.7948 44.492 57.818C44.5004 57.8412 44.5034 57.8659 44.5009 57.8905C44.4985 57.915 44.4906 57.9386 44.4778 57.9597Z" fill="black"/>
<path d="M26.5318 54.933C26.5718 54.9192 26.5918 54.9337 26.5918 54.9764V56.7268C26.5919 56.7446 26.5869 56.762 26.5773 56.777C26.5678 56.7921 26.5542 56.8041 26.538 56.8116C25.6277 57.2323 25.0677 57.4978 24.8581 57.6081C24.4843 57.8067 24.1415 57.8998 23.8298 57.8874C22.7705 57.8488 21.8353 57.5957 21.0243 57.1281C21.0088 57.1186 20.9963 57.1049 20.9882 57.0887C20.9801 57.0724 20.9767 57.0542 20.9785 57.0361C20.9802 57.018 20.9869 57.0007 20.998 56.9863C21.009 56.9718 21.0239 56.9608 21.0409 56.9543L26.5318 54.933Z" fill="black"/>
<path d="M26.5835 57.5211V58.0756C26.5835 58.1418 26.5504 58.1749 26.4842 58.1749H25.4022C25.1981 58.1749 25.185 58.1239 25.3629 58.0218L26.4056 57.4177C26.4238 57.4076 26.4442 57.4025 26.4649 57.4027C26.4856 57.403 26.506 57.4086 26.5239 57.419C26.5418 57.4294 26.5567 57.4443 26.5672 57.4622C26.5776 57.4801 26.5833 57.5004 26.5835 57.5211Z" fill="black"/>
<path d="M57.8762 9.80428V5.16432H74.5912V9.80428H68.7169V30.9419H63.7505V9.80428H57.8762Z" fill="black"/>
<path d="M72.8456 30.9419L83.4461 4.24779H83.4995L94.0999 30.9419H89.267L87.478 26.3592H79.3073L77.5184 30.9419H72.8456ZM80.9094 22.2348H85.8759L84.8345 19.5997C84.5497 18.8933 84.2827 18.2154 84.0335 17.5662C83.8021 16.8979 83.5796 16.1246 83.366 15.2462C83.1701 16.1055 82.9565 16.8692 82.7251 17.5375C82.4937 18.2059 82.2356 18.8933 81.9508 19.5997L80.9094 22.2348Z" fill="black"/>
<path d="M96.9795 30.9419V5.16432H109.796V9.63243H101.626V13.585H107.927V17.8812H101.626V26.3019H109.796V30.9419H96.9795Z" fill="black"/>
<path d="M127.125 30.9419L118.367 15.0457L125.016 5.16432H130.516L123.841 14.9598L132.759 30.9419H127.125ZM113.801 30.9419V5.16432H118.608V30.9419H113.801Z" fill="black"/>
<path d="M141.028 31.8584L131.149 5.16432H136.222L140.281 16.1627C140.477 16.6783 140.663 17.2225 140.841 17.7953C141.037 18.3491 141.251 19.0269 141.482 19.8289C141.714 19.0269 141.936 18.3491 142.15 17.7953C142.381 17.2225 142.595 16.6783 142.791 16.1627L147.383 4.30507L152.029 16.1627C152.225 16.6783 152.439 17.2225 152.67 17.7953C152.902 18.3491 153.133 19.0269 153.364 19.8289C153.596 19.0269 153.809 18.3491 154.005 17.7953C154.201 17.2225 154.388 16.6783 154.566 16.1627L158.571 5.16432H163.404L153.525 31.8584L148.558 19.1415C148.362 18.6259 148.158 18.0817 147.944 17.5089C147.73 16.9361 147.508 16.2487 147.277 15.4467C147.045 16.2487 146.823 16.9361 146.609 17.5089C146.395 18.0626 146.191 18.5973 145.995 19.1128L141.028 31.8584Z" fill="black"/>
<path d="M176.944 31.4574C175.182 31.4574 173.535 31.1137 172.004 30.4263C170.474 29.7198 169.121 28.7556 167.946 27.5335C166.789 26.3115 165.881 24.8889 165.222 23.2659C164.564 21.6429 164.234 19.9053 164.234 18.0531C164.234 16.2009 164.564 14.4633 165.222 12.8403C165.881 11.2173 166.789 9.79473 167.946 8.57269C169.121 7.35064 170.474 6.39592 172.004 5.70852C173.535 5.00202 175.182 4.64877 176.944 4.64877C178.707 4.64877 180.353 5.00202 181.884 5.70852C183.415 6.39592 184.759 7.35064 185.916 8.57269C187.091 9.79473 188.007 11.2173 188.666 12.8403C189.325 14.4633 189.654 16.2009 189.654 18.0531C189.654 19.9053 189.325 21.6429 188.666 23.2659C188.007 24.8889 187.091 26.3115 185.916 27.5335C184.759 28.7556 183.415 29.7198 181.884 30.4263C180.353 31.1137 178.707 31.4574 176.944 31.4574ZM176.944 26.4738C178.386 26.4738 179.686 26.1014 180.843 25.3567C182 24.593 182.916 23.5714 183.593 22.2921C184.287 21.0127 184.634 19.5997 184.634 18.0531C184.634 16.4873 184.287 15.0744 183.593 13.8141C182.916 12.5348 182 11.5228 180.843 10.7781C179.686 10.0143 178.386 9.63243 176.944 9.63243C175.502 9.63243 174.194 10.0143 173.019 10.7781C171.862 11.5228 170.945 12.5348 170.269 13.8141C169.592 15.0744 169.254 16.4873 169.254 18.0531C169.254 19.5997 169.592 21.0127 170.269 22.2921C170.945 23.5714 171.862 24.593 173.019 25.3567C174.194 26.1014 175.502 26.4738 176.944 26.4738Z" fill="black"/>
<path d="M212.572 31.8011L198.153 16.3632V30.9419H193.668V4.30507L208.086 19.7143V5.16432H212.572V31.8011Z" fill="black"/>
<path d="M217.699 30.9419V5.16432H225.869C227.792 5.16432 229.536 5.49848 231.103 6.16678C232.687 6.83509 234.049 7.76117 235.188 8.94503C236.345 10.1098 237.235 11.475 237.858 13.0408C238.481 14.6065 238.793 16.2773 238.793 18.0531C238.793 19.8289 238.481 21.4997 237.858 23.0654C237.235 24.6311 236.345 26.0059 235.188 27.1898C234.049 28.3546 232.687 29.2711 231.103 29.9394C229.536 30.6077 227.792 30.9419 225.869 30.9419H217.699ZM222.345 26.3019H225.442C226.795 26.3019 227.988 26.0919 229.02 25.6718C230.053 25.2326 230.916 24.6407 231.61 23.896C232.322 23.1322 232.856 22.2539 233.212 21.261C233.586 20.2681 233.773 19.1988 233.773 18.0531C233.773 16.9074 233.586 15.8381 233.212 14.8452C232.856 13.8332 232.322 12.9549 231.61 12.2102C230.916 11.4464 230.053 10.8545 229.02 10.4344C227.988 10.0143 226.795 9.80428 225.442 9.80428H222.345V26.3019Z" fill="black"/>
<path d="M254.37 31.4574C252.608 31.4574 250.961 31.1137 249.43 30.4263C247.899 29.7198 246.546 28.7556 245.371 27.5335C244.214 26.3115 243.307 24.8889 242.648 23.2659C241.989 21.6429 241.66 19.9053 241.66 18.0531C241.66 16.2009 241.989 14.4633 242.648 12.8403C243.307 11.2173 244.214 9.79473 245.371 8.57269C246.546 7.35064 247.899 6.39592 249.43 5.70852C250.961 5.00202 252.608 4.64877 254.37 4.64877C256.132 4.64877 257.779 5.00202 259.31 5.70852C260.84 6.39592 262.184 7.35064 263.342 8.57269C264.516 9.79473 265.433 11.2173 266.092 12.8403C266.75 14.4633 267.08 16.2009 267.08 18.0531C267.08 19.9053 266.75 21.6429 266.092 23.2659C265.433 24.8889 264.516 26.3115 263.342 27.5335C262.184 28.7556 260.84 29.7198 259.31 30.4263C257.779 31.1137 256.132 31.4574 254.37 31.4574ZM254.37 26.4738C255.812 26.4738 257.111 26.1014 258.268 25.3567C259.425 24.593 260.342 23.5714 261.018 22.2921C261.713 21.0127 262.06 19.5997 262.06 18.0531C262.06 16.4873 261.713 15.0744 261.018 13.8141C260.342 12.5348 259.425 11.5228 258.268 10.7781C257.111 10.0143 255.812 9.63243 254.37 9.63243C252.928 9.63243 251.62 10.0143 250.445 10.7781C249.288 11.5228 248.371 12.5348 247.695 13.8141C247.018 15.0744 246.68 16.4873 246.68 18.0531C246.68 19.5997 247.018 21.0127 247.695 22.2921C248.371 23.5714 249.288 24.593 250.445 25.3567C251.62 26.1014 252.928 26.4738 254.37 26.4738Z" fill="black"/>
<path d="M65.5615 55.5597C64.5 55.5597 63.5034 55.3672 62.5719 54.9823C61.6403 54.5866 60.8225 54.0466 60.1184 53.3623C59.4143 52.6779 58.8619 51.8813 58.4611 50.9723C58.0711 50.0634 57.8762 49.0903 57.8762 48.0531C57.8762 47.0158 58.0711 46.0428 58.4611 45.1338C58.8619 44.2249 59.4143 43.4283 60.1184 42.7439C60.8225 42.0595 61.6403 41.5249 62.5719 41.1399C63.5034 40.7443 64.5 40.5465 65.5615 40.5465C66.5581 40.5465 67.4951 40.7175 68.3725 41.0597C69.2607 41.4019 70.046 41.8831 70.7284 42.5033L70.046 45.2942C69.6019 44.5671 68.9899 43.9736 68.21 43.5138C67.4409 43.0433 66.5743 42.8081 65.6103 42.8081C64.6354 42.8081 63.7526 43.0433 62.9618 43.5138C62.1819 43.9843 61.5591 44.6152 61.0933 45.4065C60.6383 46.1978 60.4109 47.08 60.4109 48.0531C60.4109 49.0155 60.6383 49.8977 61.0933 50.6997C61.5591 51.491 62.1819 52.1219 62.9618 52.5924C63.7526 53.0629 64.6354 53.2981 65.6103 53.2981C66.5743 53.2981 67.4409 53.0629 68.21 52.5924C68.9899 52.1219 69.6019 51.5284 70.046 50.8119L70.7284 53.6029C70.046 54.2124 69.2607 54.6936 68.3725 55.0465C67.4951 55.3886 66.5581 55.5597 65.5615 55.5597Z" fill="black"/>
<path d="M91.6322 55.5597C90.5706 55.5597 89.5741 55.3672 88.6425 54.9823C87.711 54.5866 86.8932 54.0466 86.1891 53.3623C85.4958 52.6779 84.9488 51.8813 84.548 50.9723C84.1472 50.0634 83.9468 49.0903 83.9468 48.0531C83.9468 47.0158 84.1472 46.0428 84.548 45.1338C84.9488 44.2249 85.4958 43.4283 86.1891 42.7439C86.8932 42.0595 87.711 41.5249 88.6425 41.1399C89.5741 40.7443 90.5706 40.5465 91.6322 40.5465C92.7046 40.5465 93.7011 40.7443 94.6219 41.1399C95.5534 41.5249 96.3712 42.0595 97.0753 42.7439C97.7794 43.4283 98.3264 44.2249 98.7164 45.1338C99.1172 46.0428 99.3176 47.0158 99.3176 48.0531C99.3176 49.0903 99.1172 50.0634 98.7164 50.9723C98.3264 51.8813 97.7794 52.6779 97.0753 53.3623C96.3712 54.0466 95.5534 54.5866 94.6219 54.9823C93.7011 55.3672 92.7046 55.5597 91.6322 55.5597ZM91.6322 53.2981C92.6071 53.2981 93.4845 53.0629 94.2644 52.5924C95.0551 52.1219 95.678 51.491 96.1329 50.6997C96.5987 49.8977 96.8316 49.0155 96.8316 48.0531C96.8316 47.08 96.5987 46.1978 96.1329 45.4065C95.678 44.6152 95.0551 43.9843 94.2644 43.5138C93.4845 43.0433 92.6071 42.8081 91.6322 42.8081C90.6573 42.8081 89.7745 43.0433 88.9837 43.5138C88.2038 43.9843 87.581 44.6152 87.1152 45.4065C86.6603 46.1978 86.4328 47.08 86.4328 48.0531C86.4328 49.0155 86.6603 49.8977 87.1152 50.6997C87.581 51.491 88.2038 52.1219 88.9837 52.5924C89.7745 53.0629 90.6573 53.2981 91.6322 53.2981Z" fill="black"/>
<path d="M113.751 55.271V40.354L120.624 49.24L127.367 40.354V55.271H125.027V49.8656C125.027 49.4165 125.033 48.9139 125.043 48.3578C125.054 47.8018 125.098 47.1709 125.173 46.4651C124.838 47.0319 124.513 47.5291 124.199 47.9568C123.884 48.3846 123.597 48.7749 123.337 49.1278L120.559 52.9292L117.699 49.1278C117.439 48.7856 117.147 48.3899 116.822 47.9408C116.497 47.4917 116.172 46.9891 115.847 46.4331C115.923 47.1602 115.966 47.8018 115.977 48.3578C115.988 48.9032 115.993 49.4058 115.993 49.8656V55.271H113.751Z" fill="black"/>
<path d="M142.678 55.271V40.8352H146.707C147.693 40.8352 148.527 40.9849 149.21 41.2843C149.903 41.573 150.461 41.958 150.883 42.4392C151.306 42.9097 151.614 43.4283 151.809 43.995C152.004 44.5511 152.102 45.0964 152.102 45.6311C152.102 46.1657 152.004 46.7111 151.809 47.2671C151.625 47.8232 151.322 48.3418 150.899 48.823C150.477 49.3042 149.919 49.6945 149.226 49.9939C148.543 50.2826 147.704 50.427 146.707 50.427H145.018V55.271H142.678ZM145.018 48.3418H146.577C147.357 48.3418 147.975 48.2081 148.43 47.9408C148.885 47.6628 149.21 47.3206 149.405 46.9143C149.61 46.4972 149.713 46.0695 149.713 45.6311C149.713 45.214 149.616 44.797 149.421 44.38C149.237 43.9522 148.912 43.5994 148.446 43.3213C147.991 43.0433 147.368 42.9043 146.577 42.9043H145.018V48.3418Z" fill="black"/>
<path d="M166.381 55.271V40.8352H168.819V55.271H166.381Z" fill="black"/>
<path d="M184.263 55.271V40.8352H191.77V42.9043H186.603V45.5509H190.632V47.5719H186.603V53.1538H191.77V55.271H184.263Z" fill="black"/>
<path d="M212.607 55.5597C211.524 55.5597 210.511 55.3726 209.569 54.9983C208.626 54.6134 207.798 54.0841 207.083 53.4104C206.379 52.726 205.826 51.9294 205.426 51.0205C205.036 50.1115 204.841 49.1278 204.841 48.0691C204.841 47.0105 205.036 46.0267 205.426 45.1178C205.826 44.2089 206.379 43.4122 207.083 42.7279C207.798 42.0435 208.621 41.5088 209.553 41.1239C210.495 40.7389 211.508 40.5465 212.591 40.5465C213.609 40.5465 214.562 40.7175 215.451 41.0597C216.339 41.4019 217.124 41.8831 217.807 42.5033L217.124 45.2622C216.669 44.535 216.052 43.9415 215.272 43.4817C214.492 43.0112 213.598 42.776 212.591 42.776C211.594 42.776 210.701 43.0112 209.91 43.4817C209.119 43.9522 208.491 44.5885 208.025 45.3905C207.56 46.1818 207.327 47.0747 207.327 48.0691C207.327 49.0636 207.554 49.9618 208.009 50.7638C208.475 51.5551 209.103 52.186 209.894 52.6565C210.695 53.127 211.589 53.3623 212.575 53.3623C213.095 53.3623 213.588 53.3035 214.053 53.1858C214.519 53.0682 214.942 52.9025 215.321 52.6886V49.4004H211.827V47.3794H217.547V54.068C216.886 54.5492 216.128 54.9181 215.272 55.1748C214.427 55.4314 213.539 55.5597 212.607 55.5597Z" fill="black"/>
<path d="M244.267 55.7522L234.762 46.016V55.271H232.52V40.354L242.025 50.0741V40.8352H244.267V55.7522Z" fill="black"/>
<path d="M259.573 55.271V40.8352H267.08V42.9043H261.913V45.5509H265.942V47.5719H261.913V53.1538H267.08V55.271H259.573Z" fill="black"/>
<defs>
<linearGradient id="paint0_linear_20_1065" x1="9.42613" y1="2.80207" x2="45.6294" y2="44.6964" gradientUnits="userSpaceOnUse">
<stop offset="0.298912" stop-color="#C61134"/>
<stop offset="0.751873" stop-color="#07387A"/>
</linearGradient>
<linearGradient id="paint1_linear_20_1065" x1="5.57525" y1="40.0885" x2="18.0531" y2="52.3009" gradientUnits="userSpaceOnUse">
<stop stop-color="#003D8E"/>
<stop offset="1"/>
</linearGradient>
<linearGradient id="paint2_linear_20_1065" x1="46.7257" y1="39.292" x2="32.9204" y2="52.5664" gradientUnits="userSpaceOnUse">
<stop stop-color="#FFDD00"/>
<stop offset="0.399754" stop-color="#756600"/>
<stop offset="0.598541" stop-color="#312A00"/>
<stop offset="0.775064" stop-color="#100E00"/>
<stop offset="0.863892"/>
</linearGradient>
<clipPath id="clip0_20_1065">
<rect x="0.531006" y="0.530975" width="49.9115" height="50.9734" rx="24.9558" fill="white"/>
</clipPath>
</defs>
</svg>
